# xmcd CD database file
#
# Track frame offsets:
#	150
#	22093
#	47077
#	68153
#	82818
#	105502
#	124524
#	135371
#	156593
#	171521
#
# Disc length: 2654 seconds
#
# Revision: 2
# Processed by: cddbd v1.5.2PL0 Copyright (c) Steve Scherf et al.
# Submitted via: CDex 1.78
#
DISCID=7f0a5c0a
DTITLE=Chris Rea - Dancing Down The Stony Road, CD1
DYEAR=2002
DGENRE=Blues
TTITLE0=Easy Rider
TTITLE1=Stony Road
TTITLE2=Dancing The Blues Away
TTITLE3=Catfish Girl
TTITLE4=Burning Feet
TTITLE5=Slow Dance
TTITLE6=Segway
TTITLE7=Mississippi
TTITLE8=So Lonely
TTITLE9=Heading For The City
EXTD=YEAR: 2002
EXTT0=
EXTT1=
EXTT2=
EXTT3=
EXTT4=
EXTT5=
EXTT6=
EXTT7=
EXTT8=
EXTT9=
PLAYORDER=
